<?xml version="1.0" encoding="UTF-8" ?>
<svg
   width="100"
   height="100"
   viewBox="0 0 100 100"
   version="1.1"
   xmlns="http://www.w3.org/2000/svg"
   xmlns:svg="http://www.w3.org/2000/svg">
  <g id="layer">
    <path style="fill:#006b10;fill-opacity:1;stroke:#00d928;stroke-width:1;stroke-linecap:round;stroke-linejoin:round;stroke-opacity:1"
       d="M 49.604981,5.54724 C 45.286698,13.596403 41.072227,21.756464 35.310672,28.906496 31.967328,33.38018 28.366772,37.662455 24.860261,42 c 2.437221,0 4.874441,0 7.311662,0 -7.392245,9.65066 -14.860252,19.249095 -22.2052432,28.932329 3.8293552,0 7.6587102,0 11.4880652,0 C 14.480119,80.443702 7.4235563,89.900046 0.49996215,99.445692 16.671607,96.667453 32.832402,93.763402 49.010817,91.063665 c 4.842035,-0.02106 9.553215,1.455122 14.337122,2.099173 11.889792,2.094285 23.779585,4.188569 35.669377,6.282854 C 92.094059,89.8999 85.037354,80.443679 78.062782,70.932329 c 3.829209,0 7.658417,0 11.487626,0 C 82.205415,61.249096 74.737412,51.650659 67.345165,42 c 2.437422,0 4.874844,0 7.312266,0 C 66.048351,31.604779 57.313761,21.061349 51.669176,8.6783058 50.986303,7.8468628 50.588819,5.8529286 49.604981,5.54724 Z" />
    <path style="fill:#fff4c0;stroke:#ddba00;stroke-linecap:round;stroke-linejoin:round"
       d="m 49.400074,29.312595 q 3.168,0 5.856,0.72 2.736,0.672 5.04,1.968 h 13.44 v 3.36 q 0,1.728 -2.112,2.16 l -5.328,0.768 q 1.488,3.072 1.488,6.72 0,3.6 -1.392,6.48 -1.344,2.88 -3.792,4.944 -2.448,2.064 -5.856,3.168 -3.36,1.104 -7.344,1.104 -3.36,0 -6.24,-0.72 -3.024,1.824 -3.024,4.032 0,1.68 1.392,2.544 1.44,0.816 3.744,1.2 2.304,0.384 5.232,0.48 2.928,0.096 6,0.336 3.072,0.192 6,0.72 2.928,0.528 5.232,1.776 2.304,1.2 3.696,3.312 1.44,2.112 1.44,5.52 0,3.168 -1.584,6.096 -1.536,2.976 -4.512,5.232 -2.928,2.304 -7.2,3.696 -4.272,1.392 -9.648,1.392 -5.376,0 -9.408,-1.056 -3.984,-1.056 -6.672,-2.832 -2.64,-1.776 -3.984,-4.128 -1.296,-2.304 -1.296,-4.848 0,-3.6 2.208,-6.048 2.256,-2.496 6.144,-3.888 -2.16,-0.96 -3.408,-2.592 -1.248,-1.68 -1.248,-4.416 0,-1.056 0.384,-2.16 0.384,-1.152 1.152,-2.256 0.816,-1.152 1.968,-2.16 1.2,-1.008 2.736,-1.776 -3.6,-2.016 -5.664,-5.328 -2.064,-3.36 -2.064,-7.824 0,-3.6 1.392,-6.48 1.392,-2.88 3.84,-4.944 2.496,-2.064 5.904,-3.168 3.408,-1.104 7.488,-1.104 z m 15.072,52.08 q 0,-1.728 -1.008,-2.784 -0.96,-1.056 -2.64,-1.68 -1.68,-0.624 -3.888,-0.864 -2.208,-0.24 -4.656,-0.384 -2.448,-0.144 -5.04,-0.288 -2.544,-0.144 -4.896,-0.48 -2.592,1.248 -4.224,3.072 -1.632,1.824 -1.632,4.272 0,1.584 0.816,2.928 0.816,1.392 2.448,2.352 1.68,1.008 4.224,1.584 2.592,0.576 6.096,0.576 3.456,0 6.144,-0.624 2.688,-0.624 4.512,-1.728 1.824,-1.104 2.784,-2.64 0.96,-1.488 0.96,-3.312 z m -15.072,-26.688 q 2.544,0 4.464,-0.672 1.92,-0.72 3.216,-1.968 1.296,-1.248 1.92,-2.976 0.672,-1.728 0.672,-3.84 0,-4.32 -2.64,-6.864 -2.592,-2.592 -7.632,-2.592 -5.04,0 -7.68,2.592 -2.592,2.544 -2.592,6.864 0,2.064 0.672,3.792 0.672,1.728 1.968,3.024 1.296,1.248 3.216,1.968 1.92,0.672 4.416,0.672 z" />
  </g>
</svg>
